<svg xmlns="http://www.w3.org/2000/svg" viewBox="0 0 192 192" width="192" height="192">
  <defs>
    <linearGradient id="healthGradient192" x1="0%" y1="0%" x2="100%" y2="100%">
      <stop offset="0%" style="stop-color:#0ea5e9;stop-opacity:1" />
      <stop offset="100%" style="stop-color:#3b82f6;stop-opacity:1" />
    </linearGradient>
  </defs>
  <rect width="192" height="192" rx="32" fill="url(#healthGradient192)"/>
  <g transform="translate(96,96)">
    <circle cx="0" cy="0" r="60" fill="none" stroke="white" stroke-width="8" opacity="0.3"/>
    <path d="M0 -40c-8.8 0-16 7.2-16 16v16h-16c-8.8 0-16 7.2-16 16s7.2 16 16 16h16v16c0 8.8 7.2 16 16 16s16-7.2 16-16v-16h16c8.8 0 16-7.2 16-16s-7.2-16-16-16h-16v-16c0-8.8-7.2-16-16-16z" fill="white"/>
    <circle cx="-30" cy="-30" r="4" fill="white" opacity="0.8"/>
    <circle cx="30" cy="-30" r="4" fill="white" opacity="0.8"/>
    <circle cx="-30" cy="30" r="4" fill="white" opacity="0.8"/>
    <circle cx="30" cy="30" r="4" fill="white" opacity="0.8"/>
  </g>
</svg>