<svg xmlns="http://www.w3.org/2000/svg" viewBox="0 0 512 512" width="512" height="512">
  <defs>
    <linearGradient id="healthGradient512" x1="0%" y1="0%" x2="100%" y2="100%">
      <stop offset="0%" style="stop-color:#0ea5e9;stop-opacity:1" />
      <stop offset="100%" style="stop-color:#3b82f6;stop-opacity:1" />
    </linearGradient>
    <filter id="glow">
      <feGaussianBlur stdDeviation="3" result="coloredBlur"/>
      <feMerge> 
        <feMergeNode in="coloredBlur"/>
        <feMergeNode in="SourceGraphic"/> 
      </feMerge>
    </filter>
  </defs>
  <rect width="512" height="512" rx="80" fill="url(#healthGradient512)"/>
  <g transform="translate(256,256)">
    <circle cx="0" cy="0" r="180" fill="none" stroke="white" stroke-width="12" opacity="0.2"/>
    <circle cx="0" cy="0" r="140" fill="none" stroke="white" stroke-width="8" opacity="0.3"/>
    <path d="M0 -80c-17.6 0-32 14.4-32 32v16h-16c-17.6 0-32 14.4-32 32s14.4 32 32 32h16v16c0 17.6 14.4 32 32 32s32-14.4 32-32v-16h16c17.6 0 32-14.4 32-32s-14.4-32-32-32h-16v-16c0-17.6-14.4-32-32-32z" fill="white" filter="url(#glow)"/>
    <g opacity="0.6">
      <circle cx="-60" cy="-60" r="6" fill="white"/>
      <circle cx="60" cy="-60" r="6" fill="white"/>
      <circle cx="-60" cy="60" r="6" fill="white"/>
      <circle cx="60" cy="60" r="6" fill="white"/>
      <circle cx="-100" cy="0" r="4" fill="white"/>
      <circle cx="100" cy="0" r="4" fill="white"/>
      <circle cx="0" cy="-100" r="4" fill="white"/>
      <circle cx="0" cy="100" r="4" fill="white"/>
    </g>
  </g>
</svg>